# xmcd
#
# Track frame offsets:
#	150
#	12153
#	23811
#	41481
#	53115
#	66900
#	77448
#	88296
#	107076
#	123228
#	142536
#	155290
#	168227
#	179652
#	192378
#	206516
#	216849
#	227723
#	240091
#	257169
#	266905
#
# Disc length: 3762 seconds
#
# Revision: 0
# Processed by: cddbd v1.5.2PL0 Copyright (c) Steve Scherf et al.
# Submitted via: dBpowerAMP V4.0
#
DISCID=180eb015
DTITLE=Chris LeDoux - Songbook Of The American West/Sing Me A Song, Mr. Rodeo Man
DYEAR=2007
DGENRE=Country
TTITLE0=I've Got To Be A Rodeo Man
TTITLE1=The Littlest Cowboy Rides Again
TTITLE2=The Double Diamond
TTITLE3=Not For Heroes
TTITLE4=Let's All Help The Cowboys (Sing The Blues)
TTITLE5=A Cowboy Is A Hell Of A Man
TTITLE6=Goin' And A Blowin'
TTITLE7=Mamas Don't Let Your Babies Grow Up To Be Cowboys
TTITLE8=The Goodnight Loving Trail
TTITLE9=Go Riding, Young Cowboy
TTITLE10=There's Nobody Home On The Range Anymore
TTITLE11=The Yellow Stud
TTITLE12=All Around Cowboy
TTITLE13=The Lawman Reverend
TTITLE14=Our First Year
TTITLE15=Grange Hall Dance
TTITLE16=Billy The Kid
TTITLE17=Daddy's Biggest Dream
TTITLE18=Silver Tongued Devil
TTITLE19=The Rodeo Fan
TTITLE20=Bad Brahma Bull
EXTD=
EXTT0=
EXTT1=
EXTT2=
EXTT3=
EXTT4=
EXTT5=
EXTT6=
EXTT7=
EXTT8=
EXTT9=
EXTT10=
EXTT11=
EXTT12=
EXTT13=
EXTT14=
EXTT15=
EXTT16=
EXTT17=
EXTT18=
EXTT19=
EXTT20=
PLAYORDER=
